# xmcd CD database file
#
# Track frame offsets:
#	150
#	22387
#	40305
#
# Disc length: 770 seconds
#
# Revision: 0
# Processed by: cddbd v1.5.1PL2 Copyright (c) Steve Scherf et al.
# Submitted via: CDex 1.50
#
DISCID=24030003
DTITLE=GOLLBETTY - 小恋指〜コイユビ〜
DYEAR=2006
DGENRE=Japanese Indies
TTITLE0=小恋指〜コイユビ〜
TTITLE1=Dive!! Before You Die
TTITLE2=MOST
EXTD=YEAR: 2006
EXTT0=
EXTT1=
EXTT2=
PLAYORDER=
